<svg width="12" height="12" viewBox="0 0 12 12" fill="none" xmlns="http://www.w3.org/2000/svg">
<circle cx="6" cy="6" r="6" fill="#F6FDFF"/>
<path d="M8.136 3.384C8.04107 3.384 7.94826 3.41215 7.86933 3.46489C7.79039 3.51764 7.72887 3.5926 7.69254 3.68031C7.65621 3.76802 7.6467 3.86453 7.66522 3.95764C7.68374 4.05075 7.72946 4.13628 7.79659 4.20341C7.86372 4.27054 7.94925 4.31626 8.04236 4.33478C8.13547 4.3533 8.23198 4.34379 8.31969 4.30746C8.4074 4.27113 8.48236 4.20961 8.53511 4.13067C8.58785 4.05174 8.616 3.95894 8.616 3.864C8.616 3.7367 8.56543 3.61461 8.47541 3.52459C8.38539 3.43457 8.2633 3.384 8.136 3.384ZM9.976 4.352C9.96822 4.02012 9.90606 3.69176 9.792 3.38C9.69029 3.11325 9.53199 2.87171 9.328 2.672C9.12993 2.46697 8.88782 2.30967 8.62 2.212C8.30906 2.09446 7.98034 2.03088 7.648 2.024C7.224 2 7.088 2 6 2C4.912 2 4.776 2 4.352 2.024C4.01966 2.03088 3.69094 2.09446 3.38 2.212C3.11267 2.31066 2.87077 2.46782 2.672 2.672C2.46697 2.87007 2.30967 3.11218 2.212 3.38C2.09446 3.69094 2.03088 4.01966 2.024 4.352C2 4.776 2 4.912 2 6C2 7.088 2 7.224 2.024 7.648C2.03088 7.98034 2.09446 8.30906 2.212 8.62C2.30967 8.88782 2.46697 9.12993 2.672 9.328C2.87077 9.53218 3.11267 9.68934 3.38 9.788C3.69094 9.90554 4.01966 9.96912 4.352 9.976C4.776 10 4.912 10 6 10C7.088 10 7.224 10 7.648 9.976C7.98034 9.96912 8.30906 9.90554 8.62 9.788C8.88782 9.69033 9.12993 9.53303 9.328 9.328C9.5329 9.12903 9.69133 8.88728 9.792 8.62C9.90606 8.30824 9.96822 7.97988 9.976 7.648C9.976 7.224 10 7.088 10 6C10 4.912 10 4.776 9.976 4.352ZM9.256 7.6C9.25309 7.85391 9.2071 8.10548 9.12 8.344C9.05613 8.51808 8.95355 8.67537 8.82 8.804C8.69026 8.9362 8.53329 9.03857 8.36 9.104C8.12148 9.1911 7.86991 9.23709 7.616 9.24C7.216 9.26 7.068 9.264 6.016 9.264C4.964 9.264 4.816 9.264 4.416 9.24C4.15236 9.24494 3.88984 9.20434 3.64 9.12C3.47431 9.05123 3.32454 8.94911 3.2 8.82C3.06724 8.6915 2.96594 8.53408 2.904 8.36C2.80634 8.11806 2.75218 7.86078 2.744 7.6C2.744 7.2 2.72 7.052 2.72 6C2.72 4.948 2.72 4.8 2.744 4.4C2.74579 4.14042 2.79318 3.88318 2.884 3.64C2.95442 3.47116 3.06251 3.32066 3.2 3.2C3.32153 3.06247 3.47172 2.95324 3.64 2.88C3.88382 2.79202 4.1408 2.74603 4.4 2.744C4.8 2.744 4.948 2.72 6 2.72C7.052 2.72 7.2 2.72 7.6 2.744C7.85391 2.74691 8.10548 2.7929 8.344 2.88C8.52577 2.94746 8.68892 3.05714 8.82 3.2C8.95108 3.32287 9.0535 3.47309 9.12 3.64C9.2089 3.88357 9.25492 4.14071 9.256 4.4C9.276 4.8 9.28 4.948 9.28 6C9.28 7.052 9.276 7.2 9.256 7.6ZM6 3.948C5.59432 3.94879 5.19799 4.06981 4.86106 4.29577C4.52414 4.52172 4.26175 4.84248 4.10705 5.2175C3.95236 5.59252 3.91229 6.00499 3.99192 6.40277C4.07155 6.80056 4.26729 7.16581 4.55443 7.45239C4.84157 7.73897 5.2072 7.93401 5.60514 8.01286C6.00308 8.09171 6.41547 8.05084 6.79019 7.89542C7.16491 7.73999 7.48515 7.47698 7.71045 7.13961C7.93575 6.80225 8.056 6.40568 8.056 6C8.05653 5.73004 8.00368 5.46264 7.9005 5.21318C7.79731 4.96372 7.64582 4.73712 7.45475 4.54642C7.26367 4.35572 7.03678 4.20467 6.78712 4.10197C6.53746 3.99927 6.26996 3.94694 6 3.948ZM6 7.332C5.73656 7.332 5.47903 7.25388 5.25998 7.10752C5.04093 6.96116 4.87021 6.75313 4.76939 6.50973C4.66858 6.26634 4.6422 5.99852 4.69359 5.74014C4.74499 5.48176 4.87185 5.24442 5.05813 5.05813C5.24442 4.87185 5.48176 4.74499 5.74014 4.69359C5.99852 4.6422 6.26634 4.66858 6.50973 4.76939C6.75313 4.87021 6.96116 5.04093 7.10752 5.25998C7.25388 5.47903 7.332 5.73656 7.332 6C7.332 6.17492 7.29755 6.34813 7.23061 6.50973C7.16367 6.67134 7.06555 6.81818 6.94187 6.94187C6.81818 7.06555 6.67134 7.16367 6.50973 7.23061C6.34813 7.29755 6.17492 7.332 6 7.332Z" fill="#94BAC4"/>
</svg>
