<svg xmlns="http://www.w3.org/2000/svg" xmlns:xlink="http://www.w3.org/1999/xlink" width="1080" zoomAndPan="magnify" viewBox="0 0 810 809.999993" height="1080" preserveAspectRatio="xMidYMid meet" version="1.0"><defs><g/><clipPath id="6639435433"><path d="M 5.300781 289.714844 L 270.542969 289.714844 L 270.542969 521.851562 L 5.300781 521.851562 Z M 5.300781 289.714844 " clip-rule="nonzero"/></clipPath><clipPath id="1f42a095c4"><path d="M 15.816406 326.847656 C -5.6875 362.273438 9.460938 396.753906 28.5 415.058594 L 139.8125 521.851562 L 248.777344 415.4375 C 266.484375 395.75 273.269531 374.867188 269.5 351.617188 C 264.292969 319.449219 237.789062 294.492188 205.042969 290.929688 C 184.960938 288.769531 165.558594 294.453125 150.417969 307.035156 C 146.34375 310.417969 142.699219 314.203125 139.527344 318.316406 C 135.757812 313.632812 131.34375 309.347656 126.347656 305.550781 C 108.933594 292.320312 86.773438 287.066406 65.480469 291.152344 C 45.320312 295.046875 27.21875 308.054688 15.816406 326.847656 Z M 15.816406 326.847656 " clip-rule="nonzero"/></clipPath><clipPath id="8d947ceec2"><path d="M 15.816406 326.847656 C -5.6875 362.273438 9.460938 396.753906 28.5 415.058594 L 139.8125 521.851562 L 248.777344 415.4375 C 266.484375 395.75 273.269531 374.867188 269.5 351.617188 C 264.292969 319.449219 237.789062 294.492188 205.042969 290.929688 C 184.960938 288.769531 165.558594 294.453125 150.417969 307.035156 C 146.34375 310.417969 142.699219 314.203125 139.527344 318.316406 C 135.757812 313.632812 131.34375 309.347656 126.347656 305.550781 C 108.933594 292.320312 86.773438 287.066406 65.480469 291.152344 C 45.320312 295.046875 27.21875 308.054688 15.816406 326.847656 Z M 15.816406 326.847656 " clip-rule="nonzero"/></clipPath><clipPath id="15c7fb3057"><path d="M 18.210938 344.09375 L 257.605469 344.09375 L 257.605469 465.609375 L 18.210938 465.609375 Z M 18.210938 344.09375 " clip-rule="nonzero"/></clipPath></defs><g clip-path="url(#6639435433)"><g clip-path="url(#1f42a095c4)"><g clip-path="url(#8d947ceec2)"><path fill="#2d7ca8" d="M 5.300781 289.796875 L 270.898438 289.796875 L 270.898438 521.851562 L 5.300781 521.851562 Z M 5.300781 289.796875 " fill-opacity="1" fill-rule="nonzero"/></g></g></g><g clip-path="url(#15c7fb3057)"><path fill="#ffffff" d="M 257.097656 406.664062 C 251.644531 406.664062 246.199219 406.664062 240.75 406.664062 C 232.058594 406.664062 223.367188 406.664062 214.675781 406.664062 C 212.808594 406.664062 210.941406 406.664062 209.070312 406.664062 C 205.796875 398.933594 202.523438 391.203125 199.246094 383.472656 C 198.773438 382.355469 198.300781 381.234375 197.824219 380.113281 C 197.558594 379.488281 196.046875 380.261719 195.761719 380.417969 C 195.078125 380.800781 194.179688 381.386719 194.015625 382.210938 C 192.894531 387.890625 191.773438 393.570312 190.652344 399.25 C 189.304688 406.078125 187.957031 412.90625 186.609375 419.734375 C 186.226562 416.53125 185.839844 413.328125 185.460938 410.125 C 184.152344 399.167969 182.839844 388.214844 181.53125 377.257812 C 181.230469 374.75 180.929688 372.242188 180.628906 369.734375 C 180.53125 368.894531 179.203125 369.460938 178.773438 369.667969 C 177.96875 370.050781 177.011719 370.6875 176.769531 371.597656 C 173.859375 382.527344 170.949219 393.457031 168.039062 404.386719 C 167.835938 405.144531 167.636719 405.90625 167.433594 406.664062 C 162.890625 406.664062 158.34375 406.664062 153.804688 406.664062 C 145.113281 406.664062 136.421875 406.664062 127.734375 406.664062 C 125.863281 406.664062 123.988281 406.664062 122.121094 406.664062 C 119.71875 401.351562 117.316406 396.039062 114.914062 390.726562 C 114.375 389.535156 111.238281 392.015625 111.105469 392.824219 C 109.757812 400.996094 108.40625 409.164062 107.058594 417.335938 C 105.371094 427.554688 103.6875 437.777344 102 447.996094 C 101.445312 439.695312 100.886719 431.394531 100.332031 423.09375 C 99.566406 411.667969 98.800781 400.238281 98.035156 388.8125 C 97.371094 378.902344 96.707031 368.996094 96.042969 359.089844 C 95.824219 355.839844 95.605469 352.589844 95.390625 349.339844 C 95.289062 347.835938 95.339844 346.21875 95.078125 344.726562 C 95.070312 344.664062 95.070312 344.59375 95.066406 344.527344 C 94.976562 343.164062 91.382812 345.359375 91.203125 346.394531 C 89.710938 355.285156 88.21875 364.175781 86.722656 373.070312 C 84.34375 387.238281 81.960938 401.40625 79.578125 415.578125 C 79.570312 415.632812 79.558594 415.691406 79.550781 415.746094 C 77.378906 408.359375 75.207031 400.976562 73.035156 393.59375 C 72.625 392.195312 72.210938 390.796875 71.800781 389.402344 C 71.640625 388.847656 70.214844 389.460938 69.992188 389.566406 C 69.265625 389.914062 68.441406 390.464844 68.074219 391.207031 C 65.53125 396.363281 62.988281 401.511719 60.445312 406.664062 C 56.566406 406.664062 52.6875 406.664062 48.808594 406.664062 C 41.421875 406.664062 34.03125 406.664062 26.644531 406.664062 C 24.933594 406.664062 23.226562 406.664062 21.519531 406.664062 C 20.535156 406.664062 19.460938 407.316406 18.789062 408 C 18.453125 408.339844 17.714844 409.398438 18.722656 409.398438 C 23.351562 409.398438 27.980469 409.398438 32.609375 409.398438 C 40 409.398438 47.386719 409.398438 54.777344 409.398438 C 56.484375 409.398438 58.191406 409.398438 59.898438 409.398438 C 61.070312 409.398438 62.625 408.441406 63.144531 407.386719 C 65.128906 403.367188 67.113281 399.347656 69.101562 395.324219 C 71.652344 404.007812 74.207031 412.683594 76.757812 421.363281 C 77.167969 422.761719 77.582031 424.160156 77.992188 425.554688 C 78.179688 426.199219 79.828125 425.375 80.054688 425.25 C 80.722656 424.882812 81.664062 424.277344 81.800781 423.460938 C 83.296875 414.570312 84.789062 405.675781 86.285156 396.785156 C 88.261719 385.019531 90.238281 373.253906 92.21875 361.484375 C 92.777344 369.859375 93.339844 378.234375 93.902344 386.613281 C 94.667969 398.039062 95.433594 409.46875 96.195312 420.894531 C 96.863281 430.804688 97.523438 440.710938 98.191406 450.617188 C 98.40625 453.867188 98.625 457.113281 98.84375 460.363281 C 98.945312 461.871094 98.890625 463.488281 99.152344 464.976562 C 99.164062 465.042969 99.160156 465.113281 99.167969 465.179688 C 99.257812 466.539062 102.855469 464.351562 103.027344 463.3125 C 104.375 455.140625 105.722656 446.96875 107.070312 438.800781 C 109.210938 425.828125 111.355469 412.859375 113.492188 399.886719 C 113.558594 399.480469 113.628906 399.074219 113.691406 398.667969 C 115.277344 402.179688 116.867188 405.6875 118.453125 409.195312 C 118.574219 409.34375 118.734375 409.410156 118.933594 409.398438 C 124.382812 409.398438 129.828125 409.398438 135.28125 409.398438 C 143.96875 409.398438 152.660156 409.398438 161.351562 409.398438 C 163.351562 409.398438 165.351562 409.398438 167.351562 409.398438 C 168.574219 409.398438 170.351562 408.332031 170.683594 407.097656 C 173.058594 398.171875 175.4375 389.246094 177.8125 380.320312 C 178.289062 384.289062 178.761719 388.257812 179.234375 392.230469 C 180.546875 403.1875 181.855469 414.140625 183.164062 425.097656 C 183.464844 427.605469 183.765625 430.113281 184.066406 432.621094 C 184.234375 434.054688 187.734375 431.726562 187.929688 430.757812 C 189.046875 425.074219 190.167969 419.398438 191.289062 413.714844 C 192.988281 405.113281 194.683594 396.515625 196.382812 387.914062 C 198.910156 393.886719 201.445312 399.863281 203.976562 405.835938 C 204.445312 406.953125 204.921875 408.078125 205.398438 409.195312 C 205.519531 409.34375 205.679688 409.410156 205.878906 409.398438 C 211.324219 409.398438 216.777344 409.398438 222.226562 409.398438 C 230.914062 409.398438 239.605469 409.398438 248.292969 409.398438 C 250.296875 409.398438 252.296875 409.398438 254.300781 409.398438 C 255.28125 409.398438 256.355469 408.746094 257.027344 408.0625 C 257.367188 407.722656 258.101562 406.664062 257.097656 406.664062 " fill-opacity="1" fill-rule="nonzero"/></g><g fill="#2d7ca8" fill-opacity="1"><g transform="translate(292.652156, 441.999989)"><g><path d="M 90.296875 -41.0625 C 90.296875 -32.65625 88.40625 -25.109375 84.625 -18.421875 C 80.84375 -11.742188 75.59375 -6.566406 68.875 -2.890625 C 62.15625 0.785156 54.910156 2.625 47.140625 2.625 C 38.535156 2.625 30.835938 0.753906 24.046875 -2.984375 C 17.253906 -6.734375 12.003906 -11.894531 8.296875 -18.46875 C 4.585938 -25.050781 2.734375 -32.265625 2.734375 -40.109375 C 2.734375 -47.316406 4.429688 -54.035156 7.828125 -60.265625 C 11.222656 -66.492188 16.421875 -71.640625 23.421875 -75.703125 C 30.421875 -79.765625 38.117188 -81.796875 46.515625 -81.796875 C 54.210938 -81.796875 61.4375 -80.023438 68.1875 -76.484375 C 74.945312 -72.953125 80.320312 -68.050781 84.3125 -61.78125 C 88.300781 -55.519531 90.296875 -48.613281 90.296875 -41.0625 Z M 46.515625 -17.328125 C 52.878906 -17.328125 58.195312 -19.632812 62.46875 -24.25 C 66.738281 -28.875 68.875 -34.441406 68.875 -40.953125 C 68.875 -46.410156 66.671875 -51.253906 62.265625 -55.484375 C 57.859375 -59.722656 52.570312 -61.84375 46.40625 -61.84375 C 40.59375 -61.84375 35.460938 -59.796875 31.015625 -55.703125 C 26.578125 -51.609375 24.289062 -46.691406 24.15625 -40.953125 C 24.15625 -34.160156 26.320312 -28.523438 30.65625 -24.046875 C 35 -19.566406 40.285156 -17.328125 46.515625 -17.328125 Z M 46.515625 -17.328125 "/></g></g></g><g fill="#2d7ca8" fill-opacity="1"><g transform="translate(385.787226, 441.999989)"><g><path d="M 25.09375 -53.859375 L 25.09375 -24.671875 C 25.09375 -20.679688 25.84375 -17.8125 27.34375 -16.0625 C 28.851562 -14.3125 31.289062 -13.4375 34.65625 -13.4375 C 38.21875 -13.4375 40.695312 -14.378906 42.09375 -16.265625 C 43.5 -18.160156 44.203125 -20.960938 44.203125 -24.671875 L 44.203125 -53.859375 L 63.3125 -53.859375 L 63.3125 -21.109375 C 63.3125 -5.847656 53.757812 1.78125 34.65625 1.78125 C 15.539062 1.78125 5.984375 -5.878906 5.984375 -21.203125 L 5.984375 -53.859375 Z M 25.09375 -53.859375 "/></g></g></g><g fill="#2d7ca8" fill-opacity="1"><g transform="translate(454.982275, 441.999989)"><g><path d="M 46.71875 -36.21875 C 44.476562 -37.476562 41.785156 -38.078125 38.640625 -38.015625 C 34.015625 -38.015625 30.648438 -36.703125 28.546875 -34.078125 C 26.453125 -31.453125 25.40625 -27.476562 25.40625 -22.15625 L 25.40625 0 L 6.296875 0 L 6.296875 -53.859375 L 25.40625 -53.859375 L 25.40625 -45.046875 L 25.625 -45.046875 C 29.125 -51.410156 34.96875 -54.59375 43.15625 -54.59375 L 46.71875 -54.59375 Z M 46.71875 -36.21875 "/></g></g></g><g fill="#2d7ca8" fill-opacity="1"><g transform="translate(502.547317, 441.999989)"><g><path d="M 63.3125 -52.609375 C 61.28125 -55.410156 58.65625 -57.5625 55.4375 -59.0625 C 52.21875 -60.5625 48.820312 -61.3125 45.25 -61.3125 C 39.164062 -61.3125 34.128906 -59.25 30.140625 -55.125 C 26.148438 -51 24.15625 -45.75 24.15625 -39.375 C 24.15625 -33.070312 26.128906 -27.90625 30.078125 -23.875 C 34.035156 -19.851562 39.195312 -17.84375 45.5625 -17.84375 C 48.925781 -17.84375 52.164062 -18.578125 55.28125 -20.046875 C 58.394531 -21.523438 61.070312 -23.59375 63.3125 -26.25 L 63.3125 -1.578125 C 59.675781 -0.453125 56.421875 0.4375 53.546875 1.09375 C 50.679688 1.757812 47.882812 2.09375 45.15625 2.09375 C 34.09375 2.09375 24.253906 -1.734375 15.640625 -9.390625 C 7.035156 -17.054688 2.734375 -27.085938 2.734375 -39.484375 C 2.734375 -47.109375 4.617188 -54.140625 8.390625 -60.578125 C 12.171875 -67.023438 17.316406 -72.082031 23.828125 -75.75 C 30.335938 -79.425781 37.234375 -81.265625 44.515625 -81.265625 C 50.398438 -81.265625 56.664062 -79.9375 63.3125 -77.28125 Z M 63.3125 -52.609375 "/></g></g></g><g fill="#2d7ca8" fill-opacity="1"><g transform="translate(571.847355, 441.999989)"><g><path d="M 25.40625 -87.15625 L 25.40625 -47.046875 L 25.625 -47.046875 C 27.863281 -49.984375 30.347656 -52.148438 33.078125 -53.546875 C 35.804688 -54.953125 39.0625 -55.65625 42.84375 -55.65625 C 49.414062 -55.65625 54.4375 -53.660156 57.90625 -49.671875 C 61.375 -45.679688 63.109375 -40.21875 63.109375 -33.28125 L 63.109375 0 L 44 0 L 44 -28.140625 C 44 -32.546875 43.296875 -35.691406 41.890625 -37.578125 C 40.492188 -39.472656 38.328125 -40.421875 35.390625 -40.421875 C 32.023438 -40.421875 29.519531 -39.25 27.875 -36.90625 C 26.226562 -34.5625 25.40625 -31.601562 25.40625 -28.03125 L 25.40625 0 L 6.296875 0 L 6.296875 -87.15625 Z M 25.40625 -87.15625 "/></g></g></g><g fill="#2d7ca8" fill-opacity="1"><g transform="translate(641.252404, 441.999989)"><g><path d="M 46.09375 -53.859375 L 65.203125 -53.859375 L 65.203125 0 L 46.09375 0 L 46.09375 -5.984375 L 45.890625 -5.984375 C 42.597656 -0.941406 37.171875 1.644531 29.609375 1.78125 C 22.046875 1.78125 15.625 -0.945312 10.34375 -6.40625 C 5.0625 -11.863281 2.421875 -18.722656 2.421875 -26.984375 C 2.421875 -35.171875 5.0625 -41.992188 10.34375 -47.453125 C 15.625 -52.921875 21.976562 -55.65625 29.40625 -55.65625 C 36.40625 -55.507812 41.96875 -53.160156 46.09375 -48.609375 Z M 34.4375 -14.8125 C 38.082031 -14.8125 41.039062 -15.875 43.3125 -18 C 45.582031 -20.132812 46.71875 -23.09375 46.71875 -26.875 C 46.71875 -30.445312 45.597656 -33.367188 43.359375 -35.640625 C 41.117188 -37.921875 38.109375 -39.0625 34.328125 -39.0625 C 30.765625 -39.0625 27.84375 -37.921875 25.5625 -35.640625 C 23.289062 -33.367188 22.15625 -30.445312 22.15625 -26.875 C 22.15625 -23.238281 23.289062 -20.316406 25.5625 -18.109375 C 27.84375 -15.910156 30.800781 -14.8125 34.4375 -14.8125 Z M 34.4375 -14.8125 "/></g></g></g><g fill="#2d7ca8" fill-opacity="1"><g transform="translate(712.862432, 441.999989)"><g><path d="M 46.71875 -36.21875 C 44.476562 -37.476562 41.785156 -38.078125 38.640625 -38.015625 C 34.015625 -38.015625 30.648438 -36.703125 28.546875 -34.078125 C 26.453125 -31.453125 25.40625 -27.476562 25.40625 -22.15625 L 25.40625 0 L 6.296875 0 L 6.296875 -53.859375 L 25.40625 -53.859375 L 25.40625 -45.046875 L 25.625 -45.046875 C 29.125 -51.410156 34.96875 -54.59375 43.15625 -54.59375 L 46.71875 -54.59375 Z M 46.71875 -36.21875 "/></g></g></g><g fill="#2d7ca8" fill-opacity="1"><g transform="translate(762.527499, 441.999989)"><g><path d="M 27.1875 -70.03125 L 27.1875 -53.859375 L 38.015625 -53.859375 L 38.015625 -38.109375 L 27.1875 -38.109375 L 27.1875 0 L 8.078125 0 L 8.078125 -38.109375 L 1.890625 -38.109375 L 1.890625 -53.859375 L 8.078125 -53.859375 L 8.078125 -70.03125 Z M 27.1875 -70.03125 "/></g></g></g></svg>