<svg xmlns="http://www.w3.org/2000/svg" xmlns:xlink="http://www.w3.org/1999/xlink" width="1080" zoomAndPan="magnify" viewBox="0 0 810 809.999993" height="1080" preserveAspectRatio="xMidYMid meet" version="1.0"><defs><clipPath id="1411f272fc"><path d="M 51.488281 86 L 786 86 L 786 729 L 51.488281 729 Z M 51.488281 86 " clip-rule="nonzero"/></clipPath><clipPath id="f5508cf41c"><path d="M 80.601562 188.988281 C 21.054688 287.089844 63.007812 382.578125 115.726562 433.257812 L 423.980469 729 L 725.726562 434.316406 C 774.761719 379.796875 793.558594 321.96875 783.117188 257.574219 C 768.699219 168.5 695.296875 99.390625 604.617188 89.523438 C 549.003906 83.535156 495.28125 99.273438 453.351562 134.117188 C 442.0625 143.492188 431.976562 153.972656 423.1875 165.363281 C 412.753906 152.394531 400.523438 140.527344 386.691406 130.011719 C 338.472656 93.367188 277.097656 78.820312 218.140625 90.132812 C 162.304688 100.921875 112.183594 136.941406 80.601562 188.988281 Z M 80.601562 188.988281 " clip-rule="nonzero"/></clipPath><clipPath id="c39cc63c94"><path d="M 0.488281 0.160156 L 735 0.160156 L 735 643 L 0.488281 643 Z M 0.488281 0.160156 " clip-rule="nonzero"/></clipPath><clipPath id="348fa02c3f"><path d="M 29.601562 102.988281 C -29.945312 201.089844 12.007812 296.578125 64.726562 347.257812 L 372.980469 643 L 674.726562 348.316406 C 723.761719 293.796875 742.558594 235.96875 732.117188 171.574219 C 717.699219 82.5 644.296875 13.390625 553.617188 3.523438 C 498.003906 -2.464844 444.28125 13.273438 402.351562 48.117188 C 391.0625 57.492188 380.976562 67.972656 372.1875 79.363281 C 361.753906 66.394531 349.523438 54.527344 335.691406 44.011719 C 287.472656 7.367188 226.097656 -7.179688 167.140625 4.132812 C 111.304688 14.921875 61.183594 50.941406 29.601562 102.988281 Z M 29.601562 102.988281 " clip-rule="nonzero"/></clipPath><clipPath id="b04232a09e"><rect x="0" width="735" y="0" height="643"/></clipPath><clipPath id="1e84076462"><path d="M 87.238281 236.742188 L 750.171875 236.742188 L 750.171875 573.25 L 87.238281 573.25 Z M 87.238281 236.742188 " clip-rule="nonzero"/></clipPath></defs><g clip-path="url(#1411f272fc)"><g clip-path="url(#f5508cf41c)"><g transform="matrix(1, 0, 0, 1, 51, 86)"><g clip-path="url(#b04232a09e)"><g clip-path="url(#c39cc63c94)"><g clip-path="url(#348fa02c3f)"><path fill="#2d7ca8" d="M 0.488281 0.382812 L 735.984375 0.382812 L 735.984375 643 L 0.488281 643 Z M 0.488281 0.382812 " fill-opacity="1" fill-rule="nonzero"/></g></g></g></g></g></g><g clip-path="url(#1e84076462)"><path fill="#ffffff" d="M 748.765625 410.019531 C 733.671875 410.019531 718.585938 410.019531 703.496094 410.019531 C 679.429688 410.019531 655.367188 410.019531 631.296875 410.019531 C 626.125 410.019531 620.949219 410.019531 615.769531 410.019531 C 606.707031 388.609375 597.636719 367.203125 588.570312 345.796875 C 587.261719 342.695312 585.945312 339.597656 584.632812 336.496094 C 583.894531 334.757812 579.703125 336.902344 578.914062 337.339844 C 577.027344 338.390625 574.535156 340.015625 574.078125 342.300781 C 570.980469 358.03125 567.875 373.753906 564.769531 389.480469 C 561.039062 408.394531 557.304688 427.304688 553.570312 446.214844 C 552.507812 437.34375 551.445312 428.472656 550.390625 419.597656 C 546.765625 389.257812 543.136719 358.921875 539.503906 328.582031 C 538.679688 321.636719 537.847656 314.691406 537.015625 307.75 C 536.738281 305.425781 533.066406 306.988281 531.867188 307.5625 C 529.640625 308.628906 526.996094 310.390625 526.320312 312.914062 C 518.265625 343.175781 510.207031 373.445312 502.144531 403.707031 C 501.585938 405.8125 501.027344 407.917969 500.464844 410.019531 C 487.890625 410.019531 475.300781 410.019531 462.722656 410.019531 C 438.65625 410.019531 414.59375 410.019531 390.53125 410.019531 C 385.351562 410.019531 380.164062 410.019531 374.984375 410.019531 C 368.335938 395.304688 361.683594 380.597656 355.035156 365.886719 C 353.542969 362.582031 344.847656 369.457031 344.480469 371.691406 C 340.75 394.316406 337.011719 416.941406 333.28125 439.566406 C 328.609375 467.871094 323.941406 496.175781 319.269531 524.476562 C 317.730469 501.488281 316.1875 478.503906 314.648438 455.515625 C 312.53125 423.871094 310.40625 392.222656 308.289062 360.578125 C 306.445312 333.140625 304.609375 305.707031 302.769531 278.269531 C 302.167969 269.273438 301.5625 260.273438 300.960938 251.277344 C 300.683594 247.105469 300.828125 242.628906 300.105469 238.496094 C 300.078125 238.320312 300.082031 238.132812 300.070312 237.949219 C 299.816406 234.175781 289.863281 240.253906 289.375 243.113281 C 285.238281 267.738281 281.101562 292.355469 276.964844 316.984375 C 270.371094 356.21875 263.773438 395.457031 257.179688 434.699219 C 257.15625 434.855469 257.125 435.011719 257.101562 435.171875 C 251.089844 414.714844 245.070312 394.269531 239.054688 373.820312 C 237.921875 369.949219 236.78125 366.082031 235.644531 362.210938 C 235.191406 360.675781 231.246094 362.375 230.636719 362.664062 C 228.621094 363.628906 226.339844 365.152344 225.320312 367.214844 C 218.277344 381.488281 211.234375 395.75 204.195312 410.019531 C 193.449219 410.019531 182.714844 410.019531 171.972656 410.019531 C 151.511719 410.019531 131.050781 410.019531 110.589844 410.019531 C 105.859375 410.019531 101.128906 410.019531 96.398438 410.019531 C 93.671875 410.019531 90.699219 411.828125 88.839844 413.714844 C 87.90625 414.660156 85.859375 417.585938 88.652344 417.585938 C 101.472656 417.585938 114.292969 417.585938 127.113281 417.585938 C 147.574219 417.585938 168.035156 417.585938 188.496094 417.585938 C 193.226562 417.585938 197.953125 417.585938 202.683594 417.585938 C 205.929688 417.585938 210.234375 414.933594 211.671875 412.015625 C 217.167969 400.886719 222.664062 389.753906 228.160156 378.617188 C 235.234375 402.65625 242.300781 426.691406 249.371094 450.722656 C 250.507812 454.59375 251.648438 458.464844 252.78125 462.332031 C 253.304688 464.109375 257.871094 461.835938 258.5 461.484375 C 260.34375 460.464844 262.953125 458.796875 263.335938 456.527344 C 267.472656 431.90625 271.609375 407.285156 275.746094 382.664062 C 281.222656 350.078125 286.703125 317.492188 292.179688 284.90625 C 293.730469 308.097656 295.285156 331.292969 296.84375 354.488281 C 298.960938 386.132812 301.082031 417.78125 303.199219 449.425781 C 305.046875 476.863281 306.875 504.296875 308.722656 531.734375 C 309.320312 540.730469 309.921875 549.726562 310.527344 558.726562 C 310.808594 562.894531 310.660156 567.375 311.382812 571.5 C 311.414062 571.683594 311.40625 571.871094 311.421875 572.054688 C 311.675781 575.820312 321.636719 569.761719 322.113281 566.890625 C 325.84375 544.257812 329.582031 521.632812 333.3125 499.007812 C 339.238281 463.085938 345.171875 427.167969 351.089844 391.246094 C 351.277344 390.125 351.46875 389.003906 351.648438 387.875 C 356.039062 397.59375 360.4375 407.308594 364.832031 417.027344 C 365.171875 417.433594 365.613281 417.621094 366.160156 417.585938 C 381.25 417.585938 396.335938 417.585938 411.429688 417.585938 C 435.492188 417.585938 459.554688 417.585938 483.625 417.585938 C 489.164062 417.585938 494.699219 417.585938 500.246094 417.585938 C 503.628906 417.585938 508.554688 414.632812 509.464844 411.222656 C 516.046875 386.496094 522.628906 361.78125 529.210938 337.0625 C 530.527344 348.050781 531.84375 359.050781 533.152344 370.046875 C 536.78125 400.390625 540.40625 430.722656 544.035156 461.066406 C 544.867188 468.011719 545.695312 474.949219 546.527344 481.894531 C 547 485.871094 556.6875 479.425781 557.222656 476.734375 C 560.320312 461.003906 563.425781 445.277344 566.53125 429.546875 C 571.234375 405.726562 575.933594 381.914062 580.636719 358.089844 C 587.640625 374.632812 594.652344 391.179688 601.660156 407.722656 C 602.96875 410.820312 604.285156 413.929688 605.597656 417.027344 C 605.941406 417.433594 606.386719 417.621094 606.929688 417.585938 C 622.015625 417.585938 637.109375 417.585938 652.203125 417.585938 C 676.265625 417.585938 700.328125 417.585938 724.390625 417.585938 C 729.933594 417.585938 735.472656 417.585938 741.019531 417.585938 C 743.742188 417.585938 746.714844 415.777344 748.574219 413.886719 C 749.511719 412.945312 751.554688 410.019531 748.765625 410.019531 " fill-opacity="1" fill-rule="nonzero"/></g></svg>